<svg version="1.1" xmlns="http://www.w3.org/2000/svg" viewBox="0 0 1272.5306795589827 743.3333740234375" width="1272.5306795589827" height="743.3333740234375">
  <!-- svg-source:excalidraw -->
  
  <defs>
    <style class="style-fonts">
      @font-face {
        font-family: "Virgil";
        src: url("https://excalidraw.com/Virgil.woff2");
      }
      @font-face {
        font-family: "Cascadia";
        src: url("https://excalidraw.com/Cascadia.woff2");
      }
      @font-face {
        font-family: "Assistant";
        src: url("https://excalidraw.com/Assistant-Regular.woff2");
      }
    </style>
    
  </defs>
  <rect x="0" y="0" width="1272.5306795589827" height="743.3333740234375" fill="#ffffff"></rect><g stroke-linecap="round" transform="translate(311.86405358242024 10) rotate(0 108.66665649414062 33)"><path d="M16.5 0 C88.07 0.66, 157.19 1.48, 200.83 0 M16.5 0 C68.67 0.6, 120.58 -1.02, 200.83 0 M200.83 0 C211.26 -1.34, 216.39 5.4, 217.33 16.5 M200.83 0 C213.57 0.69, 215.95 5.32, 217.33 16.5 M217.33 16.5 C216.18 25.51, 218.04 31.72, 217.33 49.5 M217.33 16.5 C216.41 26.51, 218.21 37.7, 217.33 49.5 M217.33 49.5 C217.32 60.77, 210.74 65.09, 200.83 66 M217.33 49.5 C215.36 62.1, 213.71 65.88, 200.83 66 M200.83 66 C138.69 63.12, 73.62 64.15, 16.5 66 M200.83 66 C149.36 68.06, 97.12 67.97, 16.5 66 M16.5 66 C7.01 64.08, 0.91 58.54, 0 49.5 M16.5 66 C6.85 66.52, 1.56 61.25, 0 49.5 M0 49.5 C-1.64 41.49, 0.73 32.04, 0 16.5 M0 49.5 C-0.74 38.27, -1.22 24.92, 0 16.5 M0 16.5 C-1.28 6.74, 4.98 0.13, 16.5 0 M0 16.5 C-1.22 5.2, 7.51 1.06, 16.5 0" stroke="#1e1e1e" stroke-width="2" fill="none"></path></g><g stroke-linecap="round"><g transform="translate(390.53067955898274 75.3333740234375) rotate(0 -0.666656494140625 28.333343505859375)"><path d="M0.85 -1.07 C0.57 8.41, -0.25 46.42, -0.51 56.1 M-0.16 0.98 C-0.63 10.69, -0.85 48.36, -1.02 57.34" stroke="#1e1e1e" stroke-width="2" fill="none"></path></g></g><mask></mask><g stroke-linecap="round" transform="translate(313.1973665707015 133.33334350585938) rotate(0 167.00003051757812 37)"><path d="M18.5 0 C125.52 -1.23, 230.03 -0.49, 315.5 0 M18.5 0 C107.44 -0.08, 194.41 0.68, 315.5 0 M315.5 0 C328.25 -1.51, 335.86 4.51, 334 18.5 M315.5 0 C328.37 -1.68, 336.18 8.22, 334 18.5 M334 18.5 C333.34 27.24, 334.83 33.64, 334 55.5 M334 18.5 C333.84 28, 334.95 37.06, 334 55.5 M334 55.5 C335.37 69.31, 327.6 72.72, 315.5 74 M334 55.5 C331.74 67.48, 327.2 74.75, 315.5 74 M315.5 74 C253.05 74.85, 192.83 75.87, 18.5 74 M315.5 74 C211.18 74.06, 108.16 73.87, 18.5 74 M18.5 74 C4.74 73.77, -0.34 68.09, 0 55.5 M18.5 74 C7.81 75.67, 1 65.63, 0 55.5 M0 55.5 C1.53 43.61, 1.85 32.62, 0 18.5 M0 55.5 C-1.27 44.55, -1.29 34.61, 0 18.5 M0 18.5 C-1.89 6.28, 6.56 0.8, 18.5 0 M0 18.5 C1.16 7.42, 6.94 1.28, 18.5 0" stroke="#1e1e1e" stroke-width="2" fill="none"></path></g><g stroke-linecap="round"><g transform="translate(403.19730553554524 36.66668701171875) rotate(0 0 0)"><path d="M0.01 0.16 C0.01 0.13, 0.28 0.11, 0.32 0.13 M-0.42 -0.07 C-0.46 -0.06, 0.12 -0.4, 0.2 -0.43" stroke="#099268" stroke-width="2" fill="none"></path></g></g><mask></mask><g transform="translate(357.863992547264 23.333343505859375) rotate(0 39.23997497558594 22.5)"><text x="0" y="0" font-family="Virgil, Segoe UI Emoji" font-size="36px" fill="#099268" text-anchor="start" style="white-space: pre;" direction="ltr" dominant-baseline="text-before-edge">inicio</text></g><g transform="translate(343.19730553554524 163.66668701171875) rotate(0 146.06195068359375 17.5)"><text x="0" y="0" font-family="Virgil, Segoe UI Emoji" font-size="28px" fill="#099268" text-anchor="start" style="white-space: pre;" direction="ltr" dominant-baseline="text-before-edge">Ingresar credenciales</text></g><g transform="translate(372.53067955898274 294) rotate(0 245.64390563964844 35)"><text x="0" y="0" font-family="Virgil, Segoe UI Emoji" font-size="28px" fill="#1e1e1e" text-anchor="start" style="white-space: pre;" direction="ltr" dominant-baseline="text-before-edge">Generar pregunta de verificación </text><text x="0" y="35" font-family="Virgil, Segoe UI Emoji" font-size="28px" fill="#1e1e1e" text-anchor="start" style="white-space: pre;" direction="ltr" dominant-baseline="text-before-edge">("¿Cuál es el resultado de 5 + 9?")</text></g><g stroke-linecap="round" transform="translate(306.53067955898274 288.66668701171875) rotate(0 290 41.666656494140625)"><path d="M20.83 0 C160.42 -2.19, 299.08 -2.33, 559.17 0 M20.83 0 C203.41 2.04, 386.4 1.52, 559.17 0 M559.17 0 C572.93 -0.39, 578.34 6.57, 580 20.83 M559.17 0 C573.31 1.87, 581.18 4.83, 580 20.83 M580 20.83 C579.16 36.03, 580.46 53.39, 580 62.5 M580 20.83 C580.66 34.85, 580.71 50.57, 580 62.5 M580 62.5 C579.16 75.23, 571.48 83.27, 559.17 83.33 M580 62.5 C579.15 74.39, 571.13 81.67, 559.17 83.33 M559.17 83.33 C375.12 82.32, 191.6 81.56, 20.83 83.33 M559.17 83.33 C369.98 84.17, 180.34 84.64, 20.83 83.33 M20.83 83.33 C8.19 83.76, 0.92 77.65, 0 62.5 M20.83 83.33 C8.98 82.05, -1.65 76.7, 0 62.5 M0 62.5 C0.01 52.44, 0.17 39.07, 0 20.83 M0 62.5 C0.05 52.17, -0.39 43.89, 0 20.83 M0 20.83 C1.29 5.96, 5.64 1.09, 20.83 0 M0 20.83 C-1.5 7.54, 8.18 -1.64, 20.83 0" stroke="#1e1e1e" stroke-width="1" fill="none"></path></g><g stroke-linecap="round"><g transform="translate(411.863992547264 206.66668701171875) rotate(0 -1.666656494140625 40.666656494140625)"><path d="M0.04 1.16 C-0.72 14.74, -3.4 68.18, -4.07 81.4 M-1.4 0.73 C-1.82 14.51, -1.13 69.54, -1.75 82.97" stroke="#1e1e1e" stroke-width="1" fill="none"></path></g></g><mask></mask><g stroke-linecap="round"><g transform="translate(886.5306795589827 332) rotate(0 42.33331298828125 1)"><path d="M-0.76 -0.58 C13.53 -0.37, 71.25 2.02, 85.56 2.33 M1.04 1.73 C15.26 2.08, 71.16 0.3, 85.09 0.38" stroke="#1e1e1e" stroke-width="1" fill="none"></path></g></g><mask></mask><g transform="translate(1009.8640535824202 336) rotate(0 116.17195892333984 17.5)"><text x="0" y="0" font-family="Virgil, Segoe UI Emoji" font-size="28px" fill="#1e1e1e" text-anchor="start" style="white-space: pre;" direction="ltr" dominant-baseline="text-before-edge">acceso concedido</text></g><g stroke-linecap="round" transform="translate(973.1973055355452 298) rotate(0 144.66668701171875 44.66668701171875)"><path d="M22.33 0 C118.35 -0.81, 216.86 0.34, 267 0 M22.33 0 C96.29 -1.97, 168.61 -1.74, 267 0 M267 0 C281.52 -1.85, 289.1 8.56, 289.33 22.33 M267 0 C281.16 -1.14, 287.56 9.22, 289.33 22.33 M289.33 22.33 C287.82 39.57, 288.31 57.73, 289.33 67 M289.33 22.33 C288.94 35.19, 289.38 46.54, 289.33 67 M289.33 67 C287.88 81.2, 280.75 90.52, 267 89.33 M289.33 67 C289.2 83.46, 281.74 91.25, 267 89.33 M267 89.33 C208.38 87.04, 150.9 86.68, 22.33 89.33 M267 89.33 C187.24 90, 105.41 89.85, 22.33 89.33 M22.33 89.33 C6.28 88.94, 1.38 80.89, 0 67 M22.33 89.33 C8.64 91.29, 1.39 83.86, 0 67 M0 67 C0.26 49.22, -2.2 31.54, 0 22.33 M0 67 C0.1 50.75, 0.33 34.41, 0 22.33 M0 22.33 C1.4 6.86, 5.97 -1.76, 22.33 0 M0 22.33 C-1.57 9.37, 6.54 2.27, 22.33 0" stroke="#1e1e1e" stroke-width="1" fill="none"></path></g><g transform="translate(919.8640535824202 305.3333740234375) rotate(0 10.667991638183594 17.5)"><text x="0" y="0" font-family="Virgil, Segoe UI Emoji" font-size="28px" fill="#1e1e1e" text-anchor="start" style="white-space: pre;" direction="ltr" dominant-baseline="text-before-edge">si</text></g><g stroke-linecap="round"><g transform="translate(401.863992547264 372) rotate(0 0 24.66668701171875)"><path d="M0.03 -0.17 C0.16 8.07, 0.4 40.81, 0.37 48.97 M-0.62 -0.74 C-0.5 7.6, 0.12 41.17, 0.13 49.48" stroke="#1e1e1e" stroke-width="1" fill="none"></path></g></g><mask></mask><g transform="translate(355.19730553554524 462) rotate(0 245.64390563964844 35)"><text x="0" y="0" font-family="Virgil, Segoe UI Emoji" font-size="28px" fill="#1e1e1e" text-anchor="start" style="white-space: pre;" direction="ltr" dominant-baseline="text-before-edge">Generar pregunta de verificación </text><text x="0" y="35" font-family="Virgil, Segoe UI Emoji" font-size="28px" fill="#1e1e1e" text-anchor="start" style="white-space: pre;" direction="ltr" dominant-baseline="text-before-edge">("¿Cuál es el resultado de 5 + 9?")</text></g><g stroke-linecap="round" transform="translate(321.19730553554524 428) rotate(0 273 69)"><path d="M32 0 C153.75 -1.04, 276.72 -1.33, 514 0 M32 0 C180.26 1.33, 328.01 1.58, 514 0 M514 0 C534.78 -0.31, 546.43 12.11, 546 32 M514 0 C537.61 -0.2, 547.92 12.25, 546 32 M546 32 C547.83 51.55, 546.43 72.22, 546 106 M546 32 C545.67 55.65, 546.28 80.94, 546 106 M546 106 C545.14 126, 533.38 137.04, 514 138 M546 106 C546.31 126.51, 534.97 137.78, 514 138 M514 138 C393.24 137.06, 273.89 135.47, 32 138 M514 138 C336.89 137.97, 159.49 138.04, 32 138 M32 138 C10.13 136.52, 0.29 128.4, 0 106 M32 138 C11.66 140.02, 1.64 129.4, 0 106 M0 106 C-0.42 84.94, 1.24 67.67, 0 32 M0 106 C-0.36 83.49, 0.38 59.95, 0 32 M0 32 C1.33 12.48, 8.71 -1, 32 0 M0 32 C1.52 12.92, 12.74 1.87, 32 0" stroke="#1e1e1e" stroke-width="1" fill="none"></path></g><g stroke-linecap="round"><g transform="translate(870.5306795589827 493.3333740234375) rotate(0 42.33331298828125 82)"><path d="M-0.33 0.44 C32.09 11.89, 211.76 42.07, 193.85 69.33 C175.95 96.59, -57.39 148.22, -107.76 164.02 M1.7 -0.37 C34.12 10.68, 211.87 39.93, 193.53 67.55 C175.18 95.17, -58.09 149.06, -108.39 165.34" stroke="#1e1e1e" stroke-width="1" fill="none"></path></g><g transform="translate(870.5306795589827 493.3333740234375) rotate(0 42.33331298828125 82)"><path d="M-88.01 150.87 C-92.2 156.34, -96.83 158.32, -108.39 165.34 M-88.01 150.87 C-94.73 155.89, -99.94 159.04, -108.39 165.34" stroke="#1e1e1e" stroke-width="1" fill="none"></path></g><g transform="translate(870.5306795589827 493.3333740234375) rotate(0 42.33331298828125 82)"><path d="M-83.47 167.36 C-88.86 168.77, -94.61 166.71, -108.39 165.34 M-83.47 167.36 C-91.51 167.41, -98.09 165.59, -108.39 165.34" stroke="#1e1e1e" stroke-width="1" fill="none"></path></g></g><mask></mask><g transform="translate(403.19730553554524 650) rotate(0 170.533935546875 17.5)"><text x="0" y="0" font-family="Virgil, Segoe UI Emoji" font-size="28px" fill="#1e1e1e" text-anchor="start" style="white-space: pre;" direction="ltr" dominant-baseline="text-before-edge">Contraseña no es valida</text></g><g stroke-linecap="round" transform="translate(336.53067955898274 610.6666870117188) rotate(0 212 61.333343505859375)"><path d="M30.67 0 C166.99 -0.23, 303.8 -0.52, 393.33 0 M30.67 0 C134.66 2.54, 237.5 2, 393.33 0 M393.33 0 C413.47 -0.66, 424.58 12.15, 424 30.67 M393.33 0 C416 -1.75, 422.03 12.31, 424 30.67 M424 30.67 C423.91 51.14, 422.57 69.1, 424 92 M424 30.67 C423.22 44.32, 423.82 59.33, 424 92 M424 92 C425.84 113.85, 412.39 124.09, 393.33 122.67 M424 92 C421.9 113.48, 411.89 123.49, 393.33 122.67 M393.33 122.67 C284.64 124.73, 177.22 124.77, 30.67 122.67 M393.33 122.67 C308.45 121.63, 224.14 121.27, 30.67 122.67 M30.67 122.67 C11.61 123.62, 0.54 111.41, 0 92 M30.67 122.67 C12.12 123.67, -1.39 114.38, 0 92 M0 92 C-0.16 67.85, 1.13 43.21, 0 30.67 M0 92 C-0.01 73.06, -0.04 54.73, 0 30.67 M0 30.67 C-1.04 8.3, 12.07 -1.6, 30.67 0 M0 30.67 C-1.12 8.69, 9.91 0.1, 30.67 0" stroke="#1e1e1e" stroke-width="1" fill="none"></path></g><g stroke-linecap="round"><g transform="translate(337.863992547264 677.3333740234375) rotate(0 -163.6666717529297 -245.33334350585938)"><path d="M-1.09 1.16 C-55.78 -45.29, -321.24 -195.62, -327 -277.71 C-332.76 -359.8, -84.4 -456, -35.65 -491.4 M0.53 0.73 C-54.39 -45.59, -322.14 -197.82, -327.77 -279.68 C-333.4 -361.55, -82.2 -455.02, -33.27 -490.46" stroke="#1e1e1e" stroke-width="1" fill="none"></path></g><g transform="translate(337.863992547264 677.3333740234375) rotate(0 -163.6666717529297 -245.33334350585938)"><path d="M-50.02 -471.91 C-41.63 -478.53, -36.47 -488.05, -33.27 -490.46 M-50.02 -471.91 C-46.65 -476.28, -41.74 -480.89, -33.27 -490.46" stroke="#1e1e1e" stroke-width="1" fill="none"></path></g><g transform="translate(337.863992547264 677.3333740234375) rotate(0 -163.6666717529297 -245.33334350585938)"><path d="M-58.03 -487.02 C-46.34 -487.6, -38.02 -491.15, -33.27 -490.46 M-58.03 -487.02 C-52.72 -487.82, -45.89 -488.81, -33.27 -490.46" stroke="#1e1e1e" stroke-width="1" fill="none"></path></g></g><mask></mask></svg>